<svg xmlns="http://www.w3.org/2000/svg" viewBox="0 0 512 512" class="icon zp-features-icon"><path d="M408.5 89.6h-75.9V56.8c0-31.3-25.4-56.7-56.7-56.7H105.1C73.8.1 48.4 25.5 48.4 56.8V366c0 31.3 25.4 56.7 56.7 56.7h75.2v33.5c0 30.9 25.1 56 56 56h172.1c30.9 0 56-25.1 56-56V145.6c.1-30.9-25.1-56-55.9-56zm24 366.6c0 13.2-10.8 24-24 24H236.3c-13.2 0-24-10.8-24-24v-143c0-8.8-7.2-16-16-16s-16 7.2-16 16v77.5h-75.2c-13.6 0-24.7-11.1-24.7-24.7V56.8c0-13.6 11.1-24.7 24.7-24.7h170.7c13.6 0 24.7 11.1 24.7 24.7v32.8h-64.2c-30.9 0-56 25.1-56 56 0 8.8 7.2 16 16 16s16-7.2 16-16c0-13.2 10.8-24 24-24h172.1c13.2 0 24 10.8 24 24v310.6z"></path><path d="M364.8 328.5L340.4 353v-64.9c0-46.9-38.2-85-85-85H152.9c-8.8 0-16 7.2-16 16s7.2 16 16 16h102.5c29.2 0 53 23.8 53 53v65L284 328.6c-6.2-6.2-16.4-6.2-22.6 0-6.2 6.2-6.2 16.4 0 22.6l51.7 51.7c3 3 7.1 4.7 11.3 4.7 4.6 0 8.7-1.9 11.6-5l51.4-51.4c6.2-6.2 6.2-16.4 0-22.6-6.2-6.3-16.3-6.3-22.6-.1z"></path></svg>