<svg xmlns="http://www.w3.org/2000/svg" viewBox="0 0 512 512" class="icon zp-features-icon"><path d="M507.1 397.1L396.3 291c-4.6-4.4-11.5-5.7-17.3-3.2-5.9 2.5-9.7 8.3-9.7 14.7v157c0 5.5 2.8 10.5 7.4 13.5 2.6 1.7 5.6 2.5 8.6 2.5 2.3 0 4.6-.5 6.7-1.5l40.7-18.7 21.1 47.4c2.7 6 8.5 9.5 14.6 9.5 2.2 0 4.4-.4 6.5-1.4 8.1-3.6 11.7-13 8.1-21.1l-21.3-47.8 41-18.9c4.8-2.2 8.2-6.7 9.1-11.9.9-5-.9-10.4-4.7-14zm-105.9 37.6v-94.6l66.7 63.9-66.7 30.7zM274.2 291h-166C48.5 291 0 339.6 0 399.3v93.2c0 8.8 7.2 16 16 16s16-7.2 16-16v-93.2c0-42.1 34.2-76.3 76.3-76.3h166c8.8 0 16-7.2 16-16s-7.3-16-16.1-16zM255.8.5c-65.2 0-118.2 52.8-118.2 117.7s53 117.7 118.2 117.7S374 183 374 118.1C374 53.3 321 .5 255.8.5zm0 203.3c-47.5 0-86.2-38.4-86.2-85.7 0-47.2 38.7-85.7 86.2-85.7S342 70.9 342 118.1c0 47.3-38.7 85.7-86.2 85.7z"></path></svg>