<svg xmlns="http://www.w3.org/2000/svg" viewBox="0 0 512 512" class="icon zp-features-icon"><path d="M436.9 75.3C388.6 27 324.3.4 256 .4S123.4 27 75.1 75.3C26.8 123.6.2 187.9.2 256.2s26.6 132.6 74.9 180.9S187.7 512 256 512s132.6-26.6 180.9-74.9c48.3-48.3 74.9-112.5 74.9-180.9s-26.6-132.6-74.9-180.9zM414 414.2c-42.2 42.2-98.3 65.5-158 65.5s-115.8-23.2-158-65.5-65.5-98.3-65.5-158S55.7 140.4 98 98.2s98.3-65.5 158-65.5 115.8 23.2 158 65.5c42.2 42.2 65.5 98.3 65.5 158S456.3 372 414 414.2z"></path><path d="M349.2 219.2h-60.8c-2.6-15.1-9-29-18-40.7h78.7c11.1 0 20.2-9 20.2-20.2s-9-20.2-20.2-20.2h-186c-11.1 0-20.2 9-20.2 20.2s9 20.2 20.2 20.2h55.2c17.9 6.9 31.8 22 36.9 40.7h-92.1c-8.9 0-16.1 7.2-16.1 16.1s7.2 16.1 16.1 16.1h92.1c-7.1 25.8-30.8 44.9-58.9 44.9h-15.8c-7.4 0-13.8 5-15.6 12.1-1.8 7.1 1.4 14.6 7.9 18.2l121 66.2c2.5 1.3 5.1 2 7.7 2 5.7 0 11.2-3 14.2-8.4 4.3-7.8 1.4-17.6-6.4-21.9l-78-42.6c29.4-11.9 51.4-38.3 57-70.4h60.8c8.9 0 16.1-7.2 16.1-16.1s-7.1-16.2-16-16.2z"></path></svg>