<svg xmlns="http://www.w3.org/2000/svg" viewBox="0 0 512 512" class="icon zp-features-icon"><path d="M462 342.1c-31.8-31.5-73.9-48.8-118.6-48.8h-1.7l-85.9.9-88.8.8c-44.7.4-86.7 18.2-118.2 50S0 418.9 0 463.7V496c0 8.8 7.2 16 16 16s16-7.2 16-16v-32.3c0-36.2 14-70.4 39.5-96.1 25.5-25.8 59.5-40.1 95.7-40.5l72.5-.7v89c0 8.8 7.2 16 16 16s16-7.2 16-16V326l70.2-.7h1.4c36.2 0 70.3 14 96.1 39.5 26.1 25.9 40.5 60.3 40.5 97.1v34.3c0 8.8 7.2 16 16 16s16-7.2 16-16v-34.3c.1-45.3-17.6-87.9-49.9-119.8zM255.8 234.9c65 0 117.9-52.7 117.9-117.4S320.8.1 255.8.1 137.9 52.8 137.9 117.5s52.9 117.4 117.9 117.4zm0-202.8c47.4 0 85.9 38.3 85.9 85.4 0 47.1-38.6 85.4-85.9 85.4s-85.9-38.3-85.9-85.4c0-47.1 38.5-85.4 85.9-85.4z"></path></svg>