<svg xmlns="http://www.w3.org/2000/svg" viewBox="0 0 512 512" class="icon zp-features-icon"><path d="M436.2 307.1c14.1-27.5 22-58.7 22-91.7 0-111.5-90.7-202.2-202.2-202.2-111.5 0-202.2 90.7-202.2 202.2 0 33 7.9 64.2 22 91.7C32.7 317 .4 355.7.4 401.7c0 53.5 43.6 97.1 97.1 97.1h316.9c53.5 0 97.1-43.6 97.1-97.1.1-46-32.2-84.7-75.3-94.6zM256 44.9c94 0 170.5 76.5 170.5 170.5S350 385.9 256 385.9 85.5 309.4 85.5 215.4 162 44.9 256 44.9zm158.5 422.2h-317c-36.1 0-65.4-29.3-65.4-65.4 0-34.9 27.5-63.5 62-65.3 36.9 49.2 95.7 81.2 161.9 81.2 66.1 0 125-31.9 161.9-81.2 34.5 1.8 62 30.4 62 65.3 0 36.1-29.4 65.4-65.4 65.4z"></path><path d="M158 199c0 8.8 7.1 15.8 15.8 15.8H253c-6.8 21.1-26.6 36.4-49.9 36.4h-14c-7.2 0-13.6 4.9-15.4 11.9-1.8 7 1.4 14.4 7.8 17.8l106.9 58.4c2.4 1.3 5 1.9 7.6 1.9 5.6 0 11-3 13.9-8.2 4.2-7.7 1.4-17.3-6.3-21.5l-66-36.1c24.5-11.1 42.8-33.6 48.1-60.7h52.4c8.8 0 15.8-7.1 15.8-15.8s-7.1-15.8-15.8-15.8h-52.4c-2.6-13.6-8.5-25.9-16.7-36.3h69.1c8.8 0 15.8-7.1 15.8-15.8 0-8.8-7.1-15.8-15.8-15.8H173.9c-8.8 0-15.8 7.1-15.8 15.8 0 8.8 7.1 15.8 15.8 15.8h29.6c23.2 0 43 15.3 49.7 36.3h-79.3c-8.8 0-15.9 7.1-15.9 15.9z"></path></svg>