<svg version="1.1" id="Layer_1" xmlns="http://www.w3.org/2000/svg" x="0" y="0" viewBox="0 0 512 512" xml:space="preserve" class="icon payrun-step-icon"><path fill="#F4F6FA" d="M480.6 355.3c-.7-10.5-2.9-20.4-6.3-29.6-1.5-3.9-3.2-7.8-5.1-11.4-4.9-9.3-11-17.6-18.2-25.1-6.2-6.4-13-12.2-20.4-17.2-7.7-5.3-16-9.7-24.4-13.4-13.6-5.8-27.7-9.6-41.5-11.1 62.5-10.3 108.1-56.6 108.1-108.9 0-80.9-69.1-136.1-204.5-136.1-62.3 0-112.4 14-151.7 37-32.3 18.9-40.8 61.7-18.3 91.5 12.1 16.1 30.8 24.9 49.9 24.9 8.6 0 17.3-1.8 25.5-5.5 25-11.2 52.2-17 78.5-17 42.7 0 72.8 8.8 72.8 31.6 0 15.4-20.6 24.3-67.7 24.3h-.7c-21.2 0-38.3 17.2-38.3 38.4v52.8c0 21.2 17.2 38.4 38.4 38.3h.6c65.5 0 75.8 9.6 75.8 26.5 0 17.7-22.8 33.1-71.3 33.1-25.2 0-59.5-6.3-90.8-20.6-27-12.2-58.9-3.4-76.1 20.7l-3.6 5c-22.2 31-11.7 74.5 22.2 92 40.4 20.8 92.6 33.9 154.2 33.9C395 509.4 481 449.8 481 362.3c-.1-2.4-.2-4.7-.4-7z"></path><path fill="#8697B7" d="M474.3 325.7c-8.1-.9-16.1-2.1-24.1-3.3-16.6-2.7-32.9-6-48.8-11.5-3.8-1.3-7.5-2.8-11.1-4.6-3.6-1.8-7-4-10-6.7-3.5-3.1-6.5-7.6-5.4-12.2 1.5-5.7 8.5-7.7 14.3-8.7 13.7-2.3 27.5-4.5 41.2-6.8 7.4 5 14.2 10.8 20.4 17.2 7.2 7.5 13.3 15.8 18.2 25.1 2.1 3.8 3.8 7.6 5.3 11.5z"></path><path fill="#00D371" d="M216.1 314.3c4.8 1.5 9.5 3.1 14.5 4.5 19.3 5.5 41.7 9.2 83.5 5.9 56.8-4.5 98.3-21.7 98.3-21.7.3-.6-5.5-14.6-11.9-28.9-3.8-8.5-7.7-17.1-10.7-23-38.7 17.2-69.5 20.1-88.2 19.8-34.5-.5-67-9.7-67-9.7s-1 3.5-8.8 25.8c-4.2 11.2-7.8 21.3-9.7 27.3z"></path><path fill="#00BE5C" d="M216.1 314.3c4.8 1.5 9.5 3.1 14.5 4.5 0 0 94.4 3.9 169.9-44.7-3.8-8.5-7.7-17.1-10.7-23-38.7 17.2-69.5 20.1-88.2 19.8-34.5-.5-67-9.7-67-9.7s-1 3.5-8.8 25.8c-4.2 11.2-7.8 21.3-9.7 27.3z"></path><path fill="#FFF" d="M322.3 312.5c8.2-5.1 8.7-15.5 5.6-22.6-.6-1.3-4.9-10.7-15.2-12.7-1.5-.3-5.1-1-8.7.3-8.2 2.9-10.3 13.4-8.8 20.7 1.2 5.7 5.8 15.5 15.3 17 5.7.8 10.5-1.9 11.8-2.7z" opacity=".8"></path><path fill="#7F6CC4" d="M143.7 219.8c39.8 8.8 79.6 17.7 119.4 26.5 6.4 1.4 16.1 5.1 16.5 10.4 1 10.8-37.6 23-59 27.9-26.4 6-50.1 6.3-69.1 4.7l-7.8-69.5z"></path><path fill="#00D371" d="M409.4 252.2c-18.3-13.6-36.7-29.6-52.8-44-56.4 30.9-111.7 46.8-160 49.1 6.8 15.2 13.8 30.7 20.8 46.4.6 1.4 1.4 3 2.6 4 1.7 1.3 4 1.4 6 1.3 50.2-1.3 128.8-20.7 183.4-56.8z"></path><path fill="#FFF" d="M313.4 251.4c-2.1-1.6-8.3-6.5-16.7-5.4-1.2.2-8 1-11.9 6.1-6.8 8.8 1.9 21.4 2.4 22.2 1.7 2.3 6.9 9.7 16.7 10.3 6.8.4 15-2.5 18.5-8.7 5.2-9.2-3.2-19.9-9-24.5z"></path><path fill="#C3C8FF" d="M221.1 146.6c.9 9.8 0 19.5-2.5 28.7 0 .1-.1.3-.1.4-3.3 13.1-2.9 21.3-1.4 27.4.8 3.1 1.8 7 .9 12.1-1 5.4-4.9 10.1-9.6 13.2-4.8 3.2-10.3 4.9-15.9 6.4-7 1.8-15.7 4.1-25.1 4.9-28.1 2.4-54-5.8-63.1-10.8-2.8-1.4-5.5-3.1-8.2-4.9-28.5-19.8-31.6-53.1-32-62.5-.2-5.3-1.2-40.2 26.5-65.5 1.9-1.8 37.2-32.8 79.6-17.6 31 11 48.3 40.5 50.9 68.2z"></path><path fill="#8E79DC" d="M141.6 91c7.8-5.5 7.2-12 6.1-16.2-1.4-5.8-3.6-11.9-8.4-15.5-3.6-2.7-8.2-3.5-12.6-4-7-.8-14-.7-21 0 9.5 14.1 26.7 21.4 35.9 35.7z"></path><path fill="#C3C8FF" d="M180.2 379.7c-1.3 2.5-2.6 5.1-4 7.6-12.8 23.3-33.4 43.4-59.1 50.3-16.2 4.4-30.5 6.2-47.2 5.1-12.2-.8-27.1-3.5-38.8-10.3 4.2-17.9 8.5-36.2 12.4-54.8 45.6.7 91.2 1.4 136.7 2.1z"></path><path fill="#8E79DC" d="M275.9 286.2c-.5 7.9-13.4 13-20.9 14.3-12.5 2.2-27.6 2.4-39.6 1.9-4.6-.2-9.3-.6-14.3-1.1 0 15.1-4.6 45.5-20.9 78.4-9.1 2.7-18.3 4.6-27.4 6-36 5.1-72.5.3-109.3-8 6.7-32.2 12.2-65 14-96.8 1.1-18.7 2.3-39.4 15.5-52.8 12.3-12.4 31.5-14.7 48.9-13.2 37.9 3.3 74.8 23.6 106.4 39.2 12.3 6.1 25 11.9 36.7 19.1 8 5 11.2 9 10.9 13z"></path><path fill="#C0CDE7" d="M480.6 355.3c-17.2-3-34.3-7.5-51-12.6-16.1-4.9-31.8-10.4-46.8-18-7.1-3.6-14.1-7.9-19.3-14-3-3.6-5.4-8.5-3.7-12.8.9-2.3 2.7-3.8 4.9-4.8 3.1-1.4 7-1.8 10.5-1.9 25.2-.7 50.5-1.3 75.7-2 7.2 7.5 13.3 15.8 18.2 25.1 6.5 12.2 10.6 25.9 11.5 41z"></path><linearGradient id="SVGID_1_" gradientUnits="userSpaceOnUse" x1="186.609" y1="377.474" x2="142.04" y2="220.583"><stop offset="0" stop-color="#9dffc7" stop-opacity="0"></stop><stop offset="1" stop-color="#81ffc7"></stop></linearGradient><path opacity=".5" fill="url(#SVGID_1_)" d="M201.1 301.3c0 15.1-4.6 45.5-20.9 78.4-9.1 2.7-18.3 4.6-27.4 6 19.5-42.9 16.1-92.9 16.1-92.9 16.6 6 32.2 8.5 32.2 8.5z"></path></svg>