<svg version="1.1" id="Layer_1" xmlns="http://www.w3.org/2000/svg" x="0" y="0" viewBox="0 0 512 512" xml:space="preserve" class="icon payrun-step-icon"><path fill="#F4F6FA" d="M210.9 20.1L79.2 149.2c-24.5 24-25.1 63.2-1.4 87.9 24.2 25.2 64.3 25.8 89.2 1.2l40.8-40.5v235.1c0 42.4 34.4 76.9 76.9 76.9 42.4 0 76.9-34.4 76.9-76.9V64.7c0-34.5-28-62.5-62.5-62.5h-44.4c-16.4 0-32.1 6.4-43.8 17.9z"></path><path fill="#FF738D" d="M76.4 128.5c-22.5 77.5-18.6 148-3.7 221.1 1.4 6.8 4.2 13.7 8.4 18.8 1.1 1.3 5 5.5 10.1 5.9h163.1c-25.4-84.1-33.8-146.8-6.1-226.4C126 137.4 76.4 128.5 76.4 128.5z"></path><path fill="#FFF" d="M81 234.1l132.3 10.4c4.3.3 7.8-3.2 7.5-7.5-.5-8-.1-15.7 1.6-23.1 1-4.1-2-8.2-6.3-8.5L83.7 195.1c-3.4-.3-6.5 2-7.3 5.3-2.2 8.4-2.7 17.6-1.9 27.3.3 3.4 3 6.1 6.5 6.4z"></path><path fill="#FFABAD" d="M110.6 283.2l165.5 13c5.3.4 10-3.6 10.4-8.9l2.8-35.5c.4-5.3-3.6-10-8.9-10.4l-165.5-13c-5.3-.4-10 3.6-10.4 8.9l-2.8 35.5c-.4 5.3 3.6 9.9 8.9 10.4z"></path><path fill="#FFF" d="M182 176.3c-32-2.6-64-5.6-96-8.2-3-.2-3 4.5 0 4.7 32 2.6 64 5.6 96 8.2 3 .2 3-4.5 0-4.7z"></path><path fill="#E64A66" d="M92.6 374.3h161.7c-49.2-11.7-98.3-22.7-147.5-34.5 0 12.5-.4 19.6-2.6 25.1-1.4 3.5-5.6 8.6-11 9.3-.2.1-.4.1-.6.1z"></path><path fill="#C3C8FF" d="M417.9 231.5c-6.8 6.6-14.6 11.5-22.8 14.9-10.1 4.6-26 10.5-44.8 11.8-9.4.6-18.3-.2-25.4-.9-5.7-.6-11.5-1.4-16.7-3.7-5.2-2.3-10.1-6.2-12.2-11.3-2-4.8-1.9-8.7-1.8-11.9.1-5.6-1-13.7-6.3-24.4-.1-.3-.3-.6-.4-.9-4.7-9.5-7.6-19.9-8.4-30.8-2-28.4 10.6-60.9 40-77.2 40.3-22.3 80.9 3.1 83.2 4.5 32.2 20.9 37 56.2 37.6 61.6 1.1 9.5 3.5 43.6-22 68.3z"></path><path fill="#8E79DC" d="M350.5 100.3c-6.2-6.3-6.1-12.9-4.7-17 2-5.8 4.8-11.8 10-14.9 3.9-2.4 8.7-2.8 13.2-2.9 7.1-.1 14.3.6 21.3 2-10.9 13.3-29.1 19.2-39.8 32.8z"></path><path fill="#C3C8FF" d="M410.7 414.5c-3.7 3.4-7.8 6.8-12.3 9.9-52.1 36.7-111 17-124 11.9 12.1-16.4 24.6-36.3 34-54.2 6.1 3.8 11.9 7.2 17.5 10.2 28.4 15.4 52.1 21.7 84.8 22.2z"></path><path fill="#8E79DC" d="M451.5 322.1c-.1 3.4-.6 16.7-5.4 33.6v.1c-5 20.7-13.3 40.6-24.5 58.6-3.7.1-7.3.1-10.8 0-32.7-.5-56.3-6.8-84.7-22.2-5.6-3-11.4-6.4-17.5-10.2-.3-.2-.6-.4-.8-.5-.8-.5-1.9-.9-2.3-1.7-.4-.7-.4-1.6-.3-2.4.9-24.8 4.2-49.5 9.6-73.6-17.3-4.2-35.4-9.7-45.3-16.4-5.3-3.5-10.4-9-8.5-15 2-6.2 10.2-8.7 17.1-10.2 22.6-5 50.6-11.2 79.7-17.6 18.2-4 45.6-2.3 55.4-7.2 20.6 10.9 39.1 47.7 38.3 84.7z"></path><g opacity=".5"><linearGradient id="SVGID_1_" gradientUnits="userSpaceOnUse" x1="306.441" y1="366.598" x2="385.11" y2="261.08"><stop offset="0" stop-color="#ffc8ff" stop-opacity="0"></stop><stop offset="1" stop-color="#ffc8ff"></stop></linearGradient><path fill="url(#SVGID_1_)" d="M345.8 310.3l-19.8 82c-5.6-3-11.4-6.4-17.5-10.2-.3-.2-.6-.4-.8-.5-.8-.5-1.9-.9-2.3-1.7-.4-.7-.4-1.6-.3-2.4.9-24.8 4.2-49.5 9.6-73.6 11.5 2.7 22.8 4.8 31.1 6.4z"></path></g></svg>