<svg version="1.1" id="Layer_1" xmlns="http://www.w3.org/2000/svg" x="0" y="0" viewBox="0 0 512 512" xml:space="preserve" class="icon payrun-step-icon"><path fill="#F4F6FA" d="M286.4 377.8c25.7-17 47.7-32.9 66.3-48.1.9-.7 1.8-1.5 2.7-2.2 65.8-54.4 89.1-100 89.1-152.8 0-100.5-84.7-172.4-214.4-172.4C182.6 2.2 128.4 13 80.4 39.5c-36.1 19.8-45 67.7-18.9 99.5l1.6 1.9c20 24.3 54.3 31 82.2 16.3 26-13.8 54.5-21.5 88-21.5 32.2 0 57.7 15 57.7 39 0 20.5-6.5 35.4-49.8 71.1-22.8 18.8-55.8 43.3-103.4 77.4-9.3 6.7-19.1 13.7-29.6 21.1-7.9 5.6-24.7 17.5-39.7 28.1-17.5 12.4-27.9 32.4-27.9 53.9v17.6c0 36.4 29.5 66 66 66h276.7c36.4 0 66-29.5 66-66 0-36.4-29.5-66-66-66h-96.9z"></path><path fill="#FFD05C" d="M219.3 307.4c-.1.2-.1.4-.1.4 0 .1-.1.3-.1.4-64.2 13.3-129.5 28.6-158.9 34.8.3-.1.7-.2 1-.3 7.6-2.9 10.8-14.8 9.2-35.3h-.3C63.5 239.7 50.6 171.6 3 113.8c49.7-13.6 121.8-31.7 158.4-42 14.7 15.3 35 40.1 49.4 75.2 15.8 38.4 17 70.5 17.5 87.3 0-.1 1.1 39.7-9 73.1z"></path><path fill="#FFF" d="M68.3 140.1c26.4-7.4 52.7-15.4 78.8-24 3-1 1.7-5.8-1.3-4.8-26.1 8.5-52.4 16.5-78.8 24-3.2.9-1.8 5.7 1.3 4.8z"></path><path fill="#FFB15D" d="M219.3 307.4c-36-79.4-27.8-118-27.8-118l36.4 62.4c-.9 26.1-6 47.2-8.6 55.6z"></path><path fill="#FFF" d="M78.9 171.4c29.4-4.5 58.2-12.2 86-22.9 3-1.1 1.7-6-1.3-4.8-27.8 10.7-56.5 18.4-86 22.9-3.2.5-1.9 5.3 1.3 4.8zM78.2 222.1l36.6 49.6 79.5-82.9-16.2-16.1-59.5 62.5-22.8-33.4z"></path><path fill="#7168D5" d="M176.8 204.4l-12.4-3.3-.2-8.5 13.1-3z"></path><path fill="#7BA5FF" d="M266.6 214.2c-28.6-1.8-58-3.3-85-5.4-.6-.4-6.3-3.3-6.8-10.3-.4-6.1 3.4-12.3 9.8-14.7 12.9.8 72.6 3.3 85.5 4l-3.5 26.4z"></path><path fill="#C5D8FF" d="M270 187.8c-5 0-11 13.8-7.6 21.7.4 1 2.1 4.7 4.8 4.9 1 0 1.9-.5 2.7-1.1 5.3-3.8 6-7.4 6.9-12.1 1.5-7.3-3.3-13.5-6.8-13.4z"></path><path fill="#7F6CC4" d="M415 237.5c29.7 32 59.3 64.1 89 96.1 2.9 3.1 5.9 7 4.8 11.1-1.5 5.2-8.5 6-13.9 5.5-30.9-3.1-60.6-17.4-82.4-39.6l2.5-73.1z"></path><path fill="#C3C8FF" d="M374.6 241.3h-.1c-.4 0-.9-.1-1.3-.1-27.8-2.7-52.8-13.1-72.4-28.7-2.3-1.8-4.7-3.9-5.5-6.8-1.2-4.3 1.4-8.7 3.4-12.7 4.4-8.8 4.3-17.9 4.7-28.1.8-25.8 14.6-50.1 35.3-64.2 31.5-21.5 72.8-15.1 97.4 9 23.4 22.9 33.6 63.6 13.4 96.4-17 27.5-48.1 37.5-74.9 35.2zM502 426.5c-26.1 15.3-56.2 19.3-88 10-23.7-6.9-38.1-17.8-57-33.5 38.6-12.1 77.1-24.4 115.6-37 11.9 25.2 17.1 36.1 29.4 60.5z"></path><path fill="#8E79DC" d="M472.6 366.4c-38.5 12.5-66.6 21.5-105.2 33.7-4.1 1.3-8.3 2.6-12.4 3.9-2.3.7-4.7 1.4-7 .9-1.3-.3-2.4-.9-3.3-1.8-.1-.1-.3-.2-.4-.4a21.3 21.3 0 01-3.4-4.5c-14.3-23.5-41.4-64.4-32.6-132.4-18.6-13.2-36.1-28-52.3-44-9.2-9.2-26.5-35.5-14-32 36.5 10.2 86.6 40.9 130.3 47.4 17 2.5 41.4-3.7 43.4 1.1 17.7 42.5 36.9 85.6 56.9 128.1z"></path><g opacity=".5"><linearGradient id="SVGID_1_" gradientUnits="userSpaceOnUse" x1="661.609" y1="846.646" x2="614.773" y2="681.772" gradientTransform="rotate(5.902 5271.092 -2629.727)"><stop offset="0" stop-color="#ffffd4" stop-opacity="0"></stop><stop offset="1" stop-color="#ffffd4"></stop></linearGradient><path fill="url(#SVGID_1_)" d="M318.7 356.5c-9.1-22.8-15.5-52.5-10.6-90.7 6.9 4.1 14 8.8 21.3 13.2 0 0-7.7 17.6.8 51.7 4.1 16.8-11.5 25.8-11.5 25.8z"></path></g><g><path fill="#8E79DC" d="M413 118.1c.4-7.3 2.5-17.6 9.1-22.3s14.7-7.7 22.4-6.4c8 1.4 15.6 7.1 21.2 12.9-12.6 4.3-25.1 8.7-37.7 13-5 1.7-10 3.4-15 2.8z"></path></g><path fill="#FFB15D" d="M61.2 342.7c-.3.1-.7.2-1 .3-.3.1-.5.1-.7.2-.4.1-.8.1-1.2.1-6.2.1-12-6.8-14.1-16.3-1.3-5.8-.7-12.5 1-15.5l24.9-4.1h.3c1.5 20.4-1.7 32.4-9.2 35.3z"></path></svg>