<?xml version="1.0" encoding="UTF-8" standalone="no"?>
<svg width="507px" height="91px" viewBox="0 0 507 91" version="1.1" xmlns="http://www.w3.org/2000/svg" xmlns:xlink="http://www.w3.org/1999/xlink">
    <!-- Generator: Sketch 39.1 (31720) - http://www.bohemiancoding.com/sketch -->
    <title>Payroll (white)  Copy</title>
    <desc>Created with Sketch.</desc>
    <defs>
        <linearGradient x1="10.0372999%" y1="10.2484608%" x2="91.4836378%" y2="91.6974624%" id="linearGradient-1">
            <stop stop-color="#FCE01E" offset="0%"></stop>
            <stop stop-color="#FDBA24" offset="100%"></stop>
        </linearGradient>
        <linearGradient x1="11.865874%" y1="19.0290884%" x2="89.9679126%" y2="82.3716628%" id="linearGradient-2">
            <stop stop-color="#008BD0" offset="0%"></stop>
            <stop stop-color="#00649E" offset="100%"></stop>
        </linearGradient>
        <linearGradient x1="35.2598742%" y1="11.4793156%" x2="65.3466756%" y2="89.7116168%" id="linearGradient-3">
            <stop stop-color="#26A146" offset="0%"></stop>
            <stop stop-color="#028B51" stop-opacity="0.999405571" offset="100%"></stop>
        </linearGradient>
        <linearGradient x1="78.5762994%" y1="9.39578605%" x2="21.9384157%" y2="91.3462052%" id="linearGradient-4">
            <stop stop-color="#D72231" offset="0%"></stop>
            <stop stop-color="#BD2234" offset="100%"></stop>
        </linearGradient>
    </defs>
    <g id="Page-1" stroke="none" stroke-width="1" fill="none" fill-rule="evenodd">
        <g id="Payroll-(white)--Copy">
            <g id="Payroll" transform="translate(265.589841, 17.939068)" fill="#333333">
                <path d="M10.4806349,57.7311828 L0.133015873,57.7311828 L0.133015873,0.122789609 L23.6465079,0.122789609 C30.3486578,0.122789609 35.3191108,1.81796469 38.5580159,5.20836571 C41.796921,8.59876673 43.4163492,12.6010681 43.4163492,17.2153898 C43.4163492,22.476842 41.6637212,26.7393984 38.1584127,30.003187 C34.6531042,33.2669755 30.2084396,34.8988453 24.8242857,34.8988453 L10.4806349,34.8988453 L10.4806349,57.7311828 Z M10.4806349,25.9938116 L22.7211111,25.9938116 C25.9179525,25.9938116 28.3576106,25.2060124 30.0401587,23.6303903 C31.7227068,22.0547683 32.5639683,19.9586597 32.5639683,17.3420016 C32.5639683,14.9785686 31.7858014,12.9527992 30.2294444,11.2646327 C28.6730875,9.5764662 25.8618722,8.73239562 21.7957143,8.73239562 L10.4806349,8.73239562 L10.4806349,25.9938116 Z M87.5409524,57.7311828 L78.4131746,57.7311828 C77.599943,55.1426609 77.1092072,52.2728209 76.9409524,49.1215768 C74.3890878,55.4522011 69.5938976,58.6174658 62.5552381,58.6174658 C58.3208254,58.6174658 54.9207271,57.3724617 52.3548413,54.8824161 C49.7889554,52.3923705 48.5060317,49.2622755 48.5060317,45.492037 C48.5060317,35.7006714 57.0728773,30.805062 74.2068254,30.805062 C74.8798446,30.805062 75.7912112,30.8191299 76.9409524,30.847266 L76.9409524,27.6397657 C76.9409524,23.2223967 73.9404533,21.0137454 67.9393651,21.0137454 C62.1065317,21.0137454 58.7975701,23.2223967 58.012381,27.6397657 L49.8520635,26.4158511 C50.300743,22.8707015 52.1234761,19.9516241 55.3203175,17.6585313 C58.5171588,15.3654385 63.1440967,14.2189093 69.2012698,14.2189093 C72.4822386,14.2189093 75.1602542,14.4932322 77.2353968,15.0418863 C79.3105395,15.5905404 81.0631675,16.5190181 82.4933333,17.8273471 C83.9234992,19.1356761 84.9119814,20.5565282 85.4588095,22.0899461 C86.0056377,23.623364 86.2790476,26.2188811 86.2790476,29.8765751 L86.2790476,49.1215768 C86.2790476,51.9070515 86.6996783,54.7768915 87.5409524,57.7311828 L87.5409524,57.7311828 Z M76.9409524,36.038352 C64.5461814,36.038352 58.3488889,39.0066668 58.3488889,44.9433856 C58.3488889,46.7159604 58.9728244,48.2282536 60.2207143,49.4803104 C61.4686041,50.7323672 63.3544318,51.3583862 65.878254,51.3583862 C69.5237748,51.3583862 72.278906,50.1977891 74.1437302,47.8765602 C76.0085543,45.5553313 76.9409524,42.9176107 76.9409524,39.9633194 L76.9409524,36.038352 Z M129.478254,15.1051922 L112.947302,63.6397359 C111.937773,66.6221634 110.556702,68.9363236 108.804048,70.5822859 C107.051393,72.2282482 104.576683,73.051217 101.379841,73.051217 C100.11793,73.051217 98.2811761,72.9527421 95.8695238,72.7557894 L95.8695238,65.1168742 L100.454444,65.2012821 C102.473502,65.2012821 103.966741,64.8706878 104.934206,64.2094893 C105.901672,63.5482907 106.665817,62.3736259 107.226667,60.6854594 C107.787516,58.9972929 108.067937,58.0125439 108.067937,57.7311828 C108.067937,57.5623661 107.773495,56.6901599 107.184603,55.1145378 L92.5885714,15.1051922 L102.641746,15.1051922 L112.947302,43.2130236 L121.822698,15.1051922 L129.478254,15.1051922 Z M145.420317,57.7311828 L135.829841,57.7311828 L135.829841,15.1051922 L144.494921,15.1051922 L144.494921,25.2763444 C145.728789,21.3091532 147.425333,18.4111775 149.584603,16.5823305 C151.743873,14.7534835 153.959195,13.8390737 156.230635,13.8390737 C156.539102,13.8390737 156.959733,13.8531415 157.49254,13.8812777 L157.49254,24.2212457 C152.61315,24.2212457 149.381304,25.7827762 147.796905,28.9058842 C146.212505,32.0289922 145.420317,35.0535785 145.420317,37.9797337 L145.420317,57.7311828 Z M181.006032,58.6174658 C174.724519,58.6174658 169.929329,56.352543 166.620317,51.8226296 C163.311306,47.2927163 161.656825,42.1016822 161.656825,36.2493717 C161.656825,29.9468835 163.486569,24.6995781 167.146111,20.507298 C170.805653,16.3150179 175.635896,14.2189093 181.636984,14.2189093 C187.329605,14.2189093 192.005617,16.2587465 195.665159,20.3384822 C199.324701,24.4182178 201.154444,29.7217946 201.154444,36.2493717 C201.154444,42.9739015 199.254596,48.3829872 195.454841,52.4767909 C191.655087,56.5705946 186.838865,58.6174658 181.006032,58.6174658 L181.006032,58.6174658 Z M181.34254,50.683123 C187.792307,50.683123 191.017143,45.8578528 191.017143,36.2071678 C191.017143,31.846071 190.245987,28.4064834 188.703651,25.8883017 C187.161315,23.3701201 184.791762,22.1110481 181.594921,22.1110481 C178.285909,22.1110481 175.83223,23.4123236 174.23381,26.0149136 C172.635389,28.6175036 171.83619,32.071159 171.83619,36.3759836 C171.83619,41.0184414 172.684462,44.5635378 174.381032,47.0113792 C176.077601,49.4592206 178.398081,50.683123 181.34254,50.683123 L181.34254,50.683123 Z M219.494127,57.7311828 L209.903651,57.7311828 L209.903651,0.122789609 L219.494127,0.122789609 L219.494127,57.7311828 Z M240.567937,57.7311828 L230.97746,57.7311828 L230.97746,0.122789609 L240.567937,0.122789609 L240.567937,57.7311828 Z"></path>
            </g>
            <g id="Zoho">
                <g id="O" transform="translate(184.076190, 17.939068)">
                    <polygon id="Fill-1" fill="#E79225" points="61.3050656 0.213246595 61.3050656 58.6858022 53.398555 66.6350925 53.2690199 9.38304588"></polygon>
                    <polygon id="Fill-2" fill="url(#linearGradient-1)" points="0.180505047 66.6348315 53.3983277 66.6348315 53.3983277 9.38311111 0.180505047 9.38311111"></polygon>
                    <polygon id="Fill-4" fill="#FDF16F" points="8.51639696 0.252060215 0.180699837 9.38304588 53.3985225 9.38304588 61.3050332 0.213246595"></polygon>
                </g>
                <g id="H" transform="translate(123.042110, 13.372760)">
                    <polygon id="Fill-5" fill="#91C9ED" points="3.63951418 7.32605448 55.9872765 0.0150688172 51.6071073 12.6255814 2.0152934 20.5269254 2.22664014 11.513033"></polygon>
                    <polygon id="Fill-6" fill="url(#linearGradient-2)" points="51.6072372 12.6255161 58.8595793 63.9149427 7.24227805 71.2011398 0.272380818 21.6152724 3.28610088 19.2492724"></polygon>
                    <polyline id="Fill-8" fill="#009ADA" points="55.9872116 0.0151992832 56.0274681 0.325055914 62.8158864 52.8467333 58.8593846 63.9148122 51.607367 12.6257118"></polyline>
                </g>
                <g id="O" transform="translate(58.761535, 0.000000)">
                    <polygon id="Fill-9" fill="url(#linearGradient-3)" points="23.7058967 16.3252043 70.0486197 37.3331577 49.1379541 85.0259642 2.79490639 64.0222509"></polygon>
                    <polygon id="Fill-11" fill="#98D0A0" points="18.8949502 0.00013046595 23.7059292 16.3253348 70.0486522 37.332962 66.1525352 21.734453"></polygon>
                    <polygon id="Fill-12" fill="#66BF6B" points="18.8949502 0.00013046595 0.24319484 44.4749943 2.79493886 64.0220552 23.7059292 16.3253348"></polygon>
                </g>
                <g id="Z" transform="translate(0.000000, 7.501792)">
                    <polygon id="Fill-13" fill="url(#linearGradient-4)" points="0 26.3909785 8.22629028 76.9605591 59.441351 68.8922186 51.8030007 18.4221183"></polygon>
                    <polygon id="Fill-15" fill="#EF463E" points="3.59649814 8.37079319 3.24649366e-05 26.3910763 51.8030332 18.4222161 55.3082724 0.0434777778"></polygon>
                    <polygon id="Fill-16" fill="#760D16" points="55.3082399 0.0433146953 62.8904259 51.0042932 59.441351 68.8921534 51.8030007 18.422053"></polygon>
                </g>
                <path d="M165.869594,35.824743 C165.636496,34.2320799 165.094981,33.0167896 164.217454,32.2206211 C163.520107,31.5849258 162.64258,31.2630011 161.642335,31.2649581 C161.386511,31.2649581 161.124195,31.2855065 160.851164,31.3256247 C159.511012,31.5187143 158.484795,32.1426677 157.856274,33.1723703 C157.398518,33.9157 157.176134,34.8133057 157.176134,35.8456176 C157.176134,36.2406032 157.209572,36.6571158 157.273528,37.0941767 L159.156819,50.4408434 L144.315474,52.6356068 L142.432832,39.2863308 C142.204928,37.7341122 141.67088,36.5312161 140.80504,35.7131946 C140.10607,35.0504276 139.234711,34.7112161 138.251348,34.7138254 C138.019548,34.7138254 137.781256,34.7324168 137.537769,34.768295 C136.141127,34.9711695 135.077251,35.5827287 134.430874,36.5971014 C133.962405,37.3277108 133.736449,38.2289043 133.736449,39.2778505 C133.736449,39.6800118 133.770538,40.105657 133.835143,40.554786 L138.913308,75.2639473 C139.146731,76.859872 139.702206,78.0728792 140.61512,78.8563272 C141.327076,79.4685387 142.220187,79.7764384 143.242832,79.7748075 C143.522355,79.7748075 143.813241,79.7523022 144.112892,79.7072914 C145.390712,79.5220297 146.377646,78.901338 146.972729,77.872614 C147.399643,77.1420047 147.607094,76.2636427 147.607094,75.259381 C147.607094,74.8568935 147.574304,74.4354885 147.509049,73.9935351 L145.434215,60.2831946 L160.274587,58.0913667 L162.351044,71.8023595 C162.579273,73.3767573 163.129229,74.5825889 164.030456,75.3771265 C164.745334,76.0089079 165.629678,76.3272448 166.631871,76.3249616 C166.889643,76.3249616 167.153258,76.3057179 167.425639,76.2652735 C168.760272,76.0699007 169.782918,75.4560584 170.393583,74.43451 C170.832834,73.7068362 171.045479,72.8226032 171.045479,71.8046427 C171.045479,71.4031337 171.013014,70.9800978 170.948084,70.5358613 L165.869594,35.824743 Z M105.511434,55.0244384 C103.765145,59.1579258 101.459809,61.9929509 98.6077647,63.5640871 C97.0789909,64.4052663 95.5125577,64.8214527 93.8925573,64.822105 C92.484553,64.822105 91.033695,64.5057251 89.5344643,63.8687251 C86.2912171,62.4789366 84.2709241,60.2460118 83.3963187,57.09689 C83.1041343,56.0397896 82.9567435,54.9298505 82.9567435,53.7625065 C82.9567435,51.4506498 83.53397,48.9147179 84.698812,46.1560154 C86.4847081,41.9253308 88.8150413,39.0397502 91.6700078,37.4598075 C93.1942366,36.6156928 94.7616437,36.1959186 96.3874877,36.1959186 C97.8107505,36.1959186 99.2820615,36.5162125 100.805316,37.1656068 C104.028111,38.5433272 106.028275,40.7811444 106.886973,43.9439652 C107.166171,44.9782341 107.307069,46.0669724 107.307069,47.2127896 C107.307069,49.5732448 106.712961,52.1783237 105.511434,55.0244384 L105.511434,55.0244384 Z M110.587976,34.2474097 C108.767342,32.3184706 106.555506,30.8011516 103.961882,29.6957789 C101.387413,28.5969294 98.7840493,28.0492986 96.1605578,28.0492986 L96.0404376,28.0496247 C93.3763649,28.0669115 90.7437831,28.6628147 88.1495101,29.8321158 L88.1495101,29.8311373 C85.4334935,31.0187036 83.0661503,32.6808398 81.0578693,34.8152627 C79.0495883,36.948381 77.4140048,39.5139939 76.1514434,42.503295 C74.9057638,45.4567179 74.2142607,48.412424 74.0863488,51.3684563 C74.0707657,51.7024491 74.0642727,52.0380728 74.0642727,52.3714133 C74.0642727,54.9804061 74.509367,57.5355817 75.3989062,60.0330262 C76.3426619,62.669743 77.7344338,64.9515925 79.5696766,66.8753129 C81.4039455,68.7990333 83.6605833,70.3290728 86.331149,71.4621695 L86.331149,71.4615172 C88.8851655,72.5496032 91.4787893,73.0959294 94.1055273,73.0942986 L94.1727297,73.0942986 C96.8218686,73.0822305 99.4495805,72.5124204 102.047425,71.3923703 L102.049697,71.3910656 L102.051321,71.3894348 C104.78357,70.1669688 107.166821,68.4836319 109.19945,66.3511659 C111.230781,64.216743 112.873183,61.6583057 114.128277,58.6859652 C115.383371,55.7136247 116.067083,52.7549832 116.179087,49.8119975 C116.190125,49.5275817 116.195319,49.2447968 116.195319,48.9626642 C116.195319,46.3161624 115.730097,43.7228254 114.798678,41.1865674 C113.813042,38.491467 112.40796,36.1763487 110.587976,34.2474097 L110.587976,34.2474097 Z M46.3015575,68.3619724 C45.897369,67.8782699 45.353906,67.5194885 44.6916213,67.2859545 C44.0108316,67.047528 43.1875208,66.9327179 42.2184424,66.9327179 C41.3048791,66.9327179 40.2608067,67.0351337 39.0826542,67.2380082 L25.5649039,69.5593237 C25.7080743,68.5129867 26.2255654,67.1372233 27.1378301,65.4607358 C28.1562551,63.5826785 29.6577585,61.3265961 31.6420154,58.7006427 L31.6429893,58.6999903 C32.323779,57.7844455 32.8438673,57.0861265 33.2039035,56.6040548 C33.4616751,56.2831086 33.8213866,55.8104957 34.2872584,55.1855638 C37.3795436,51.108829 39.2936763,47.7907538 40.0273839,45.1856749 C40.4471555,43.7088004 40.7026545,42.22051 40.794855,40.7221086 C40.8201776,40.3117932 40.831865,39.9047394 40.831865,39.5006211 C40.831865,38.4262341 40.7445343,37.3688075 40.5676004,36.3280154 C40.4062497,35.3801803 40.1738007,34.5915136 39.8627866,33.9584276 C39.5511232,33.3266462 39.1553757,32.8462054 38.6674277,32.5435244 C38.1168223,32.2062699 37.3425336,32.064062 36.3293029,32.0617789 C35.4926815,32.0617789 34.4898396,32.1641946 33.3152582,32.3651122 L17.6934554,35.0504276 C15.8017235,35.3762663 14.4050819,35.9356391 13.5139194,36.7784491 C12.8052099,37.4467609 12.43933,38.3110978 12.4432258,39.3036176 C12.4432258,39.5625925 12.4666006,39.8307 12.5139994,40.1079401 C12.7341117,41.4416283 13.4256148,42.4194706 14.54111,42.9165459 C15.1991743,43.2156391 15.9945652,43.357847 16.9230624,43.3581731 C17.5551547,43.357847 18.2499044,43.2913093 19.00861,43.1614957 L32.0838632,40.94651 C32.106264,41.1784133 32.1218471,41.4103165 32.1218471,41.6402627 C32.1218471,42.4608935 31.9796507,43.2622806 31.6962318,44.0512735 C31.3082758,45.138381 30.3385482,46.6928828 28.7935418,48.6687896 C28.3555898,49.2082663 27.6845396,50.0491194 26.7807158,51.1877609 C23.254699,55.4800907 20.7289269,59.1393344 19.201127,62.183105 C19.201127,62.1844097 19.201127,62.1844097 19.1998284,62.1860405 L19.1998284,62.187019 C18.1148502,64.2826283 17.362313,66.3459473 16.949359,68.3773022 C16.7084692,69.5625853 16.5870503,70.6986176 16.5870503,71.7876821 C16.5870503,72.5681946 16.649383,73.3255495 16.7740484,74.0577896 C16.9535795,75.1080405 17.2110264,75.9746606 17.5587259,76.6612376 C17.90675,77.3448792 18.350221,77.8566319 18.8975799,78.1586606 C19.4069547,78.4362269 20.1565701,78.5464706 21.1873318,78.5494061 C22.4959934,78.5494061 24.2581902,78.3556642 26.4882067,77.9737251 L40.6627227,75.538252 C43.1725869,75.1041265 44.9185512,74.503657 45.9330805,73.6657394 C46.7437299,72.9977538 47.1635016,72.078295 47.1592811,70.9986892 C47.1592811,70.7260154 47.1342831,70.4438828 47.0836378,70.1506606 C46.9644915,69.4477753 46.704772,68.8456749 46.3015575,68.3619724 L46.3015575,68.3619724 Z M34.2875831,55.1842591 L34.288557,55.1832806 C34.2875831,55.1842591 34.2875831,55.1849115 34.2872584,55.1855638 L34.2859598,55.1855638 L34.2875831,55.1842591 Z M218.416042,66.7875746 C216.376919,69.2641444 213.63136,70.491829 210.086838,70.4947645 C206.518292,70.491829 203.761694,69.2670799 201.710884,66.8038828 C199.666567,64.3384025 198.63191,60.9498756 198.630936,56.59851 C198.63191,52.1652771 199.662671,48.7245638 201.69595,46.2401659 C203.734424,43.7573989 206.499462,42.5244957 210.086838,42.5196032 C213.63136,42.5244957 216.375945,43.7560943 218.416042,46.2404921 C220.450295,48.7245638 221.483005,52.1652771 221.483005,56.59851 C221.483005,60.9290011 220.452568,64.3145925 218.416042,66.7875746 L218.416042,66.7875746 Z M229.353155,47.9186104 C228.299992,45.2597143 226.741026,42.8761014 224.680152,40.7736427 C222.706283,38.7520728 220.488279,37.2262735 218.039449,36.2021158 C215.587697,35.1776319 212.937259,34.6665315 210.090734,34.6671839 C207.224729,34.6665315 204.54832,35.1776319 202.078063,36.2014634 C199.60878,37.2262735 197.392398,38.7527251 195.43736,40.774295 C193.379083,42.8562054 191.826285,45.231338 190.795523,47.8892556 C189.764762,50.5491301 189.248244,53.451019 189.248244,56.5900297 C189.248244,59.6889222 189.76606,62.5797215 190.811756,65.2578613 C191.852257,67.9363272 193.396939,70.3398362 195.43736,72.4595817 C197.350194,74.4446211 199.543525,75.9459581 202.002095,76.9596785 C204.462937,77.9720943 207.162072,78.477976 210.090734,78.477976 C212.914534,78.477976 215.56205,77.9720943 218.020619,76.9596785 C220.481137,75.9466104 222.704336,74.4455996 224.677879,72.462191 C226.741026,70.3398362 228.299992,67.9441552 229.353155,65.2748219 C230.406966,62.6061409 230.933548,59.7097968 230.933548,56.5900297 C230.933548,53.4712412 230.406966,50.5788111 229.353155,47.9186104 L229.353155,47.9186104 Z" id="Boolen-Paths" fill="#FEFEFE"></path>
            </g>
        </g>
    </g>
</svg>